<svg width="16" height="15" viewBox="0 0 16 15" fill="none" xmlns="http://www.w3.org/2000/svg">
<path fill-rule="evenodd" clip-rule="evenodd" d="M8.72769 7.46722C8.82935 7.40522 8.9156 7.27532 8.98515 7.13095C9.90053 7.50507 10.5438 8.38913 10.5438 9.42012C10.5438 10.7897 9.40855 11.9001 8.00816 11.9001C7.4333 11.9001 6.90311 11.7129 6.47781 11.3976C6.3383 11.3316 6.22351 11.2681 6.12958 11.2162C5.98389 11.1356 5.88835 11.0828 5.82853 11.0911C5.65366 11.1152 5.70443 11.2761 5.75057 11.4222C5.78189 11.5215 5.8111 11.614 5.76589 11.6522C5.71861 11.6921 5.56544 11.5461 5.38647 11.3754C5.14284 11.1432 4.85139 10.8653 4.71396 10.9487C4.6053 11.0147 4.71079 11.1938 4.83994 11.4129L4.84952 11.4292C4.90407 11.5218 4.96729 11.6162 5.02497 11.7022C5.14225 11.8772 5.2367 12.0181 5.18945 12.042C5.13232 12.0708 4.73429 11.8022 4.39887 11.4292C4.26941 11.2852 4.14402 11.1292 4.02747 10.9842V10.9842C3.77239 10.6668 3.55987 10.4024 3.44057 10.4337C3.29706 10.4714 3.40562 10.7674 3.56514 11.0522C3.63973 11.1855 3.72747 11.3211 3.80344 11.4386V11.4386C3.9216 11.6212 4.01127 11.7598 3.97875 11.7769C3.93487 11.7998 3.5487 11.4233 3.28642 10.9487C3.13064 10.6669 2.99983 10.3554 2.89392 10.1032C2.77908 9.82975 2.69353 9.62604 2.63719 9.60554C2.44147 9.53432 2.44147 9.93337 2.51997 10.5093C2.53021 10.5845 2.54546 10.6633 2.56424 10.7435C3.32549 13.2066 5.664 15 8.43077 15C11.8151 15 14.5585 12.3168 14.5585 9.0068C14.5585 5.85645 12.0733 3.27384 8.91572 3.03205C8.9197 2.88364 8.99716 2.58935 8.99716 2.58935C8.99716 2.58935 9.55459 1.24064 9.58407 0.952438C9.586 0.933311 9.58831 0.912524 9.5908 0.890388C9.62552 0.578991 9.69012 0 9.19202 0C8.926 0 8.80231 0.19789 8.66083 0.424216V0.424219C8.60652 0.511104 8.54956 0.602183 8.48095 0.687861C7.98677 1.30499 7.1558 2.07565 6.68461 2.48622C5.6887 3.35402 4.71159 4.06723 4.1417 4.48318L4.14167 4.48321C3.88248 4.67238 3.70755 4.80009 3.65341 4.85285C3.24542 5.25059 1.78257 7.88924 1.78257 7.88924C1.78257 7.88924 1.3095 8.7358 1.47764 8.90751C1.64579 9.07919 2.05129 9.03984 2.05129 9.03984C2.05129 9.03984 7.49877 7.79013 7.98648 7.69157C8.11779 7.66503 8.21048 7.64971 8.28164 7.63796C8.47486 7.60606 8.50954 7.60031 8.72769 7.46722ZM4.87612 5.86125C4.58371 6.13919 4.09875 6.80262 4.09875 6.80262C4.09875 6.80262 5.00004 6.85813 5.49642 6.38631C5.99283 5.91445 5.8791 5.11034 5.8791 5.11034C5.8791 5.11034 5.1685 5.58331 4.87612 5.86125Z" fill="#014c78"/>
</svg>
